# 3ds Max Wavefront OBJ Exporter v0.97b - (c)2007 guruware
# File Created: 24.08.2014 07:18:06

#
# object Y
#

v  -11757.615234 50390.328125 -4870.169434
v  -11757.590820 0.000000 -4870.179688
v  -12726.327148 -0.003906 -0.016156
v  -12726.351563 53202.113281 -0.000000
v  -8998.887695 48006.605469 -8998.890625
v  -8998.865234 0.000000 -8998.903320
v  -4870.164551 46413.855469 -11757.615234
v  -4870.142090 0.000000 -11757.628906
v  -0.000672 45854.554688 -12726.351563
v  0.020160 0.000000 -12726.365234
v  4870.182617 0.000000 -11757.630859
v  4870.158691 46413.859375 -11757.617188
v  8998.885742 48006.609375 -8998.890625
v  8998.908203 0.000000 -8998.906250
v  11757.611328 50390.328125 -4870.164063
v  11757.635742 0.000000 -4870.180664
v  12726.372070 0.003906 -0.015448
v  12726.347656 53202.121094 0.000000
v  -11757.590820 0.000000 4870.147461
v  -11757.615234 50390.316406 4870.163574
v  -8998.865234 0.000000 8998.872070
v  -8998.887695 48006.601563 8998.888672
v  -4870.141602 0.000000 11757.597656
v  -4870.164551 46413.851563 11757.613281
v  0.022082 0.000000 12726.333984
v  -0.000672 45854.554688 12726.349609
v  4870.179199 0.000000 11757.600586
v  4870.158691 46413.851563 11757.614258
v  8998.907227 0.000000 8998.875000
v  8998.885742 48006.605469 8998.888672
v  11757.635742 0.000000 4870.149902
v  11757.611328 50390.328125 4870.165039
v  -11757.616211 58825.699219 0.005859
v  -11757.604492 82419.812500 -40866.183594
v  -12726.339844 78202.125000 -43301.265625
v  -8998.890625 63593.136719 0.002197
v  -8998.878906 85995.390625 -38801.824219
v  -4870.167969 66778.640625 0.001953
v  -4870.156738 88384.515625 -37422.460938
v  -0.004263 67897.242188 0.001465
v  0.005624 89223.468750 -36938.093750
v  4870.167969 88384.515625 -37422.460938
v  4870.155273 66778.640625 0.002441
v  8998.882813 63593.140625 0.001953
v  8998.894531 85995.390625 -38801.820313
v  11757.610352 58825.703125 -0.001587
v  11757.622070 82419.812500 -40866.183594
v  12726.359375 78202.125000 -43301.265625
v  -11757.602539 73984.437500 -45736.347656
v  -8998.876953 70408.859375 -47800.707031
v  -4870.152832 68019.734375 -49180.070313
v  0.011137 67180.781250 -49664.437500
v  4870.167969 68019.734375 -49180.074219
v  8998.895508 70408.859375 -47800.710938
v  11757.624023 73984.437500 -45736.347656
v  -11757.602539 73984.421875 45736.359375
v  -12726.339844 78202.109375 43301.277344
v  -8998.876953 70408.843750 47800.722656
v  -4870.153320 68019.718750 49180.085938
v  0.009215 67180.765625 49664.453125
v  4870.171387 68019.718750 49180.085938
v  8998.896484 70408.843750 47800.722656
v  11757.624023 73984.421875 45736.359375
v  12726.359375 78202.109375 43301.277344
v  -11757.604492 82419.789063 40866.195313
v  -8998.878906 85995.375000 38801.832031
v  -4870.156250 88384.500000 37422.468750
v  0.007545 89223.453125 36938.101563
v  4870.164551 88384.500000 37422.468750
v  8998.893555 85995.375000 38801.832031
v  11757.622070 82419.796875 40866.195313
# 71 vertices

vn -0.945035 -0.000000 -0.326969
vn -0.923880 -0.000000 -0.382684
vn -1.000000 -0.000000 -0.000000
vn -0.738841 -0.000000 -0.673880
vn -0.707107 -0.000000 -0.707107
vn -0.405806 0.000000 -0.913959
vn -0.382684 0.000000 -0.923880
vn -0.000000 0.000000 -1.000000
vn 0.382683 0.000000 -0.923880
vn 0.405805 0.000000 -0.913960
vn 0.738841 0.000001 -0.673880
vn 0.707107 0.000001 -0.707107
vn 0.945035 0.000001 -0.326970
vn 0.923879 0.000001 -0.382684
vn 1.000000 0.000000 -0.000000
vn 1.000000 0.000000 0.000000
vn -0.923880 -0.000001 0.382683
vn -0.945035 -0.000001 0.326969
vn -0.707107 -0.000001 0.707107
vn -0.738841 -0.000001 0.673880
vn -0.382684 -0.000001 0.923880
vn -0.405806 -0.000001 0.913959
vn -0.000000 -0.000000 1.000000
vn 0.382683 -0.000000 0.923880
vn 0.405805 -0.000000 0.913959
vn 0.707107 0.000000 0.707107
vn 0.738840 0.000000 0.673880
vn 0.923879 0.000000 0.382684
vn 0.945035 0.000000 0.326970
vn -0.945035 0.283164 0.163485
vn -0.923879 0.331414 0.191342
vn -1.000000 0.000000 -0.000000
vn -0.738841 0.583597 0.336940
vn -0.707107 0.612373 0.353553
vn -0.405806 0.791512 0.456980
vn -0.382684 0.800103 0.461940
vn 0.000000 0.866025 0.500000
vn 0.382683 0.800103 0.461940
vn 0.405805 0.791512 0.456980
vn 0.738840 0.583598 0.336941
vn 0.707106 0.612373 0.353554
vn 0.945035 0.283164 0.163485
vn 0.923879 0.331414 0.191342
vn 1.000000 -0.000000 0.000000
vn -0.923879 -0.331414 -0.191342
vn -0.945035 -0.283164 -0.163485
vn -0.707107 -0.612372 -0.353554
vn -0.738841 -0.583597 -0.336940
vn -0.382684 -0.800103 -0.461940
vn -0.405806 -0.791512 -0.456980
vn 0.000000 -0.866025 -0.500000
vn 0.382683 -0.800103 -0.461940
vn 0.405806 -0.791512 -0.456980
vn 0.707106 -0.612373 -0.353554
vn 0.738841 -0.583598 -0.336940
vn 0.923879 -0.331414 -0.191342
vn 0.945035 -0.283164 -0.163485
vn -0.945035 -0.283164 0.163485
vn -0.923879 -0.331414 0.191342
vn -1.000000 -0.000000 0.000000
vn -0.738840 -0.583597 0.336940
vn -0.707107 -0.612373 0.353554
vn -0.405805 -0.791512 0.456980
vn -0.382684 -0.800103 0.461940
vn -0.000000 -0.866026 0.500000
vn 0.000000 -0.866026 0.500000
vn 0.382684 -0.800103 0.461939
vn 0.405805 -0.791512 0.456979
vn 0.738841 -0.583598 0.336940
vn 0.707106 -0.612373 0.353553
vn 0.945035 -0.283164 0.163484
vn 0.923879 -0.331414 0.191342
vn -0.923880 0.331414 -0.191341
vn -0.945035 0.283164 -0.163484
vn -0.707107 0.612372 -0.353553
vn -0.738841 0.583597 -0.336940
vn -0.382684 0.800103 -0.461939
vn -0.405806 0.791512 -0.456979
vn 0.000000 0.866026 -0.500000
vn 0.382683 0.800103 -0.461940
vn 0.405805 0.791512 -0.456980
vn 0.707106 0.612373 -0.353554
vn 0.738840 0.583598 -0.336940
vn 0.923879 0.331414 -0.191342
vn 0.945035 0.283164 -0.163485
# 85 vertex normals

vt 0.062500 0.069592 1.000000
vt 0.062500 1.000000 1.000000
vt 0.000000 1.000000 1.000000
vt 0.000000 0.041443 1.000000
vt 0.125000 0.093456 1.000000
vt 0.125000 1.000000 1.000000
vt 0.187500 0.109401 1.000000
vt 0.187500 1.000000 1.000000
vt 0.250000 0.115000 1.000000
vt 0.250000 1.000000 1.000000
vt 0.312500 1.000000 1.000000
vt 0.312500 0.109401 1.000000
vt 0.375000 0.093456 1.000000
vt 0.375000 1.000000 1.000000
vt 0.437500 0.069592 1.000000
vt 0.437500 1.000000 1.000000
vt 0.500000 1.000000 1.000000
vt 0.500000 0.041443 1.000000
vt 1.000000 1.000000 1.000000
vt 0.937500 1.000000 1.000000
vt 0.937500 0.069592 1.000000
vt 1.000000 0.041443 1.000000
vt 0.875000 1.000000 1.000000
vt 0.875000 0.093456 1.000000
vt 0.812500 1.000000 1.000000
vt 0.812500 0.109401 1.000000
vt 0.750000 1.000000 1.000000
vt 0.750000 0.115000 1.000000
vt 0.687500 1.000000 1.000000
vt 0.687500 0.109401 1.000000
vt 0.625000 1.000000 1.000000
vt 0.625000 0.093456 1.000000
vt 0.562500 1.000000 1.000000
vt 0.562500 0.069592 1.000000
# 34 texture coords

g Y
s 1
f 1/1/1 2/2/2 3/3/3 4/4/3 
f 5/5/4 6/6/5 2/2/2 1/1/1 
f 7/7/6 8/8/7 6/6/5 5/5/4 
f 9/9/8 10/10/8 8/8/7 7/7/6 
f 11/11/9 10/10/8 9/9/8 12/12/10 
f 12/12/10 13/13/11 14/14/12 11/11/9 
f 13/13/11 15/15/13 16/16/14 14/14/12 
f 17/17/15 16/16/14 15/15/13 18/18/16 
f 3/19/3 19/20/17 20/21/18 4/22/3 
f 19/20/17 21/23/19 22/24/20 20/21/18 
f 21/23/19 23/25/21 24/26/22 22/24/20 
f 23/25/21 25/27/23 26/28/23 24/26/22 
f 26/28/23 25/27/23 27/29/24 28/30/25 
f 28/30/25 27/29/24 29/31/26 30/32/27 
f 30/32/27 29/31/26 31/33/28 32/34/29 
f 32/34/29 31/33/28 17/17/15 18/18/16 
s 2
f 33/1/30 34/2/31 35/3/32 4/4/32 
f 36/5/33 37/6/34 34/2/31 33/1/30 
f 38/7/35 39/8/36 37/6/34 36/5/33 
f 40/9/37 41/10/37 39/8/36 38/7/35 
f 42/11/38 41/10/37 40/9/37 43/12/39 
f 43/12/39 44/13/40 45/14/41 42/11/38 
f 44/13/40 46/15/42 47/16/43 45/14/41 
f 48/17/16 47/16/43 46/15/42 18/18/44 
f 35/19/32 49/20/45 1/21/46 4/22/32 
f 49/20/45 50/23/47 5/24/48 1/21/46 
f 50/23/47 51/25/49 7/26/50 5/24/48 
f 51/25/49 52/27/51 9/28/51 7/26/50 
f 9/28/51 52/27/51 53/29/52 12/30/53 
f 12/30/53 53/29/52 54/31/54 13/32/55 
f 13/32/55 54/31/54 55/33/56 15/34/57 
f 15/34/57 55/33/56 48/17/16 18/18/44 
s 4
f 20/1/58 56/2/59 57/3/60 4/4/60 
f 22/5/61 58/6/62 56/2/59 20/1/58 
f 24/7/63 59/8/64 58/6/62 22/5/61 
f 26/9/65 60/10/66 59/8/64 24/7/63 
f 61/11/67 60/10/66 26/9/65 28/12/68 
f 28/12/68 30/13/69 62/14/70 61/11/67 
f 30/13/69 32/15/71 63/16/72 62/14/70 
f 64/17/15 63/16/72 32/15/71 18/18/15 
f 57/19/60 65/20/73 33/21/74 4/22/60 
f 65/20/73 66/23/75 36/24/76 33/21/74 
f 66/23/75 67/25/77 38/26/78 36/24/76 
f 67/25/77 68/27/79 40/28/79 38/26/78 
f 40/28/79 68/27/79 69/29/80 43/30/81 
f 43/30/81 69/29/80 70/31/82 44/32/83 
f 44/32/83 70/31/82 71/33/84 46/34/85 
f 46/34/85 71/33/84 64/17/15 18/18/15 
# 48 polygons

#
# object Y_Right_Dummy
#

v  0.015625 81512.312500 49034.718750
v  0.015336 83935.546875 39991.109375
v  -6620.367188 78202.125000 43301.300781
v  0.015704 72468.703125 46611.492188
v  6620.398438 78202.125000 43301.300781
v  0.015625 74891.937500 37567.882813
# 6 vertices

vn 0.000000 0.500000 0.866025
vn -0.000000 0.866025 -0.500000
vn -1.000000 -0.000000 -0.000000
vn 0.000000 -0.866025 0.500000
vn 1.000000 0.000000 -0.000000
vn 0.000000 -0.500000 -0.866025
# 6 vertex normals

vt 0.000000 1.000000 0.000000
vt 0.000000 0.500000 0.000000
vt 0.250000 0.500000 0.000000
vt 0.250000 1.000000 0.000000
vt 0.500000 0.500000 0.000000
vt 0.500000 1.000000 0.000000
vt 0.750000 0.500000 0.000000
vt 0.750000 1.000000 0.000000
vt 1.000000 0.500000 0.000000
vt 0.000000 0.000000 0.000000
vt 0.250000 0.000000 0.000000
vt 0.500000 0.000000 0.000000
vt 0.750000 0.000000 0.000000
# 13 texture coords

g Y_Right_Dummy
s 1
f 72/35/86 73/36/87 74/37/88 
f 72/38/86 74/37/88 75/39/89 
f 72/40/86 75/39/89 76/41/90 
f 72/42/86 76/41/90 73/43/87 
f 77/44/91 74/37/88 73/36/87 
f 77/45/91 75/39/89 74/37/88 
f 77/46/91 76/41/90 75/39/89 
f 77/47/91 73/43/87 76/41/90 
# 0 polygons - 8 triangles

#
# object Y_Left_Dummy
#

v  0.013672 81512.304688 -49034.679688
v  0.013382 72468.695313 -46611.449219
v  -6620.369141 78202.117188 -43301.257813
v  0.013751 83935.539063 -39991.066406
v  6620.396484 78202.117188 -43301.257813
v  0.013672 74891.929688 -37567.835938
# 6 vertices

vn 0.000000 0.500000 -0.866025
vn -0.000000 -0.866025 -0.500000
vn -1.000000 -0.000000 0.000000
vn 0.000000 0.866025 0.500000
vn 1.000000 -0.000000 -0.000000
vn 0.000000 -0.500000 0.866025
# 6 vertex normals

vt 0.000000 1.000000 0.000000
vt 0.000000 0.500000 0.000000
vt 0.250000 0.500000 0.000000
vt 0.250000 1.000000 0.000000
vt 0.500000 0.500000 0.000000
vt 0.500000 1.000000 0.000000
vt 0.750000 0.500000 0.000000
vt 0.750000 1.000000 0.000000
vt 1.000000 0.500000 0.000000
vt 0.000000 0.000000 0.000000
vt 0.250000 0.000000 0.000000
vt 0.500000 0.000000 0.000000
vt 0.750000 0.000000 0.000000
# 13 texture coords

g Y_Left_Dummy
s 1
f 78/48/92 79/49/93 80/50/94 
f 78/51/92 80/50/94 81/52/95 
f 78/53/92 81/52/95 82/54/96 
f 78/55/92 82/54/96 79/56/93 
f 83/57/97 80/50/94 79/49/93 
f 83/58/97 81/52/95 80/50/94 
f 83/59/97 82/54/96 81/52/95 
f 83/60/97 79/56/93 82/54/96 
# 0 polygons - 8 triangles

#
# object Y_Connect_Dummy
#

v  0.013672 6620.382813 -0.014461
v  0.013382 -0.001079 -6620.396484
v  -6620.369141 -0.000289 -0.013093
v  0.013751 0.000500 6620.369141
v  6620.396484 -0.000289 -0.014829
v  0.013672 -6620.382813 -0.012883
# 6 vertices

vn 0.000000 1.000000 -0.000000
vn -0.000000 -0.000000 -1.000000
vn -1.000000 -0.000000 0.000000
vn 0.000000 0.000000 1.000000
vn 1.000000 -0.000000 -0.000000
vn 0.000000 -1.000000 0.000000
# 6 vertex normals

vt 0.000000 1.000000 0.000000
vt 0.000000 0.500000 0.000000
vt 0.250000 0.500000 0.000000
vt 0.250000 1.000000 0.000000
vt 0.500000 0.500000 0.000000
vt 0.500000 1.000000 0.000000
vt 0.750000 0.500000 0.000000
vt 0.750000 1.000000 0.000000
vt 1.000000 0.500000 0.000000
vt 0.000000 0.000000 0.000000
vt 0.250000 0.000000 0.000000
vt 0.500000 0.000000 0.000000
vt 0.750000 0.000000 0.000000
# 13 texture coords

g Y_Connect_Dummy
s 1
f 84/61/98 85/62/99 86/63/100 
f 84/64/98 86/63/100 87/65/101 
f 84/66/98 87/65/101 88/67/102 
f 84/68/98 88/67/102 85/69/99 
f 89/70/103 86/63/100 85/62/99 
f 89/71/103 87/65/101 86/63/100 
f 89/72/103 88/67/102 87/65/101 
f 89/73/103 85/69/99 88/67/102 
# 0 polygons - 8 triangles

